<svg width="800" height="480" viewBox="0 0 800 480" fill="none" xmlns="http://www.w3.org/2000/svg">
<g id="VUMeterStates" clip-path="url(#clip0_39_1020)">
<rect id="Background" width="800" height="480" fill="url(#paint0_linear_39_1020)"/>
<path id="VU LEVEL INDICATOR" d="M265.629 90.1385H265.944L271.07 76.9846H274.31L268.047 93.0401H263.477L257.215 76.9846H260.503L265.629 90.1385ZM292.112 76.9846V85.3267C292.112 86.842 291.79 88.2122 291.145 89.4373C290.516 90.6624 289.646 91.6215 288.534 92.3147C287.421 93.0079 286.18 93.3544 284.81 93.3544C283.424 93.3544 282.166 93.0079 281.038 92.3147C279.926 91.6215 279.047 90.6624 278.402 89.4373C277.774 88.2122 277.459 86.842 277.459 85.3267V76.9846H280.53V85.3267C280.53 86.2778 280.707 87.1321 281.062 87.8898C281.433 88.6474 281.941 89.2438 282.585 89.6791C283.246 90.0982 283.988 90.3078 284.81 90.3078C285.616 90.3078 286.341 90.0982 286.986 89.6791C287.631 89.2438 288.131 88.6474 288.485 87.8898C288.856 87.1321 289.041 86.2778 289.041 85.3267V76.9846H292.112ZM307.308 90.1385H316.448V93.0401H304.237V76.9846H307.308V90.1385ZM322.987 83.5615H331.837V86.439H322.987V90.1385H334.859V93.0401H319.916V76.9846H334.859V79.862H322.987V83.5615ZM345.962 90.1385H346.276L351.402 76.9846H354.642L348.38 93.0401H343.81L337.547 76.9846H340.835L345.962 90.1385ZM360.862 83.5615H369.712V86.439H360.862V90.1385H372.735V93.0401H357.792V76.9846H372.735V79.862H360.862V83.5615ZM379.848 90.1385H388.988V93.0401H376.777V76.9846H379.848V90.1385ZM400.107 76.9846H403.177V93.0401H400.107V76.9846ZM410.71 81.9415V93.0401H407.639V76.9846H410.372L419.85 88.059V76.9846H422.921V93.0401H420.14L410.71 81.9415ZM427.404 76.9846H435.044C436.544 76.9846 437.898 77.3312 439.107 78.0243C440.316 78.7014 441.259 79.6524 441.936 80.8776C442.629 82.1027 442.975 83.4809 442.975 85.0123C442.975 86.5276 442.629 87.8978 441.936 89.1229C441.259 90.3481 440.316 91.3072 439.107 92.0004C437.898 92.6935 436.544 93.0401 435.044 93.0401H427.404V76.9846ZM435.044 90.1385C435.947 90.1385 436.753 89.9209 437.462 89.4856C438.188 89.0504 438.752 88.4459 439.155 87.6721C439.558 86.8823 439.76 85.9957 439.76 85.0123C439.76 84.029 439.558 83.1505 439.155 82.3767C438.752 81.5868 438.188 80.9743 437.462 80.539C436.753 80.0877 435.947 79.862 435.044 79.862H430.474V90.1385H435.044ZM446.719 76.9846H449.79V93.0401H446.719V76.9846ZM466.003 83.5615C465.745 82.4009 465.205 81.4659 464.383 80.7567C463.561 80.0474 462.578 79.6927 461.433 79.6927C460.531 79.6927 459.717 79.9265 458.991 80.394C458.282 80.8453 457.726 81.474 457.323 82.28C456.92 83.086 456.718 83.9968 456.718 85.0123C456.718 86.0118 456.92 86.9145 457.323 87.7205C457.726 88.5265 458.282 89.1632 458.991 89.6307C459.717 90.0821 460.531 90.3078 461.433 90.3078C462.578 90.3078 463.561 89.9531 464.383 89.2438C465.205 88.5346 465.745 87.5996 466.003 86.439H469.268C469.074 87.793 468.615 88.994 467.889 90.0418C467.18 91.0896 466.261 91.9036 465.133 92.484C464.021 93.0643 462.787 93.3544 461.433 93.3544C459.934 93.3544 458.58 92.9998 457.371 92.2905C456.162 91.5651 455.211 90.5657 454.518 89.2922C453.841 88.0187 453.502 86.5921 453.502 85.0123C453.502 83.4326 453.841 82.006 454.518 80.7325C455.211 79.459 456.162 78.4596 457.371 77.7342C458.58 77.0088 459.934 76.6461 461.433 76.6461C462.787 76.6461 464.021 76.9362 465.133 77.5165C466.261 78.0969 467.18 78.9109 467.889 79.9587C468.615 81.0065 469.074 82.2075 469.268 83.5615H466.003ZM484.627 93.0401L483.055 88.9295H475.608L474.06 93.0401H470.82L477.083 76.9846H481.653L487.916 93.0401H484.627ZM482.016 86.0521L479.283 79.4026L476.672 86.0521H482.016ZM503.347 76.9846V79.862H497.229V93.0401H494.182V79.862H488.065V76.9846H503.347ZM513.973 93.3544C512.474 93.3544 511.12 92.9998 509.911 92.2905C508.702 91.5651 507.751 90.5657 507.057 89.2922C506.38 88.0187 506.042 86.5921 506.042 85.0123C506.042 83.4326 506.38 82.006 507.057 80.7325C507.751 79.459 508.702 78.4596 509.911 77.7342C511.12 77.0088 512.474 76.6461 513.973 76.6461C515.472 76.6461 516.826 77.0088 518.035 77.7342C519.244 78.4596 520.187 79.459 520.864 80.7325C521.557 82.006 521.904 83.4326 521.904 85.0123C521.904 86.5921 521.557 88.0187 520.864 89.2922C520.187 90.5657 519.244 91.5651 518.035 92.2905C516.826 92.9998 515.472 93.3544 513.973 93.3544ZM509.258 85.0123C509.258 86.0118 509.459 86.9145 509.862 87.7205C510.265 88.5265 510.821 89.1632 511.531 89.6307C512.256 90.0821 513.07 90.3078 513.973 90.3078C514.876 90.3078 515.69 90.0821 516.415 89.6307C517.14 89.1632 517.705 88.5265 518.108 87.7205C518.527 86.9145 518.736 86.0118 518.736 85.0123C518.736 83.9968 518.527 83.086 518.108 82.28C517.705 81.474 517.14 80.8453 516.415 80.394C515.69 79.9265 514.876 79.6927 513.973 79.6927C513.07 79.6927 512.256 79.9265 511.531 80.394C510.821 80.8453 510.265 81.474 509.862 82.28C509.459 83.086 509.258 83.9968 509.258 85.0123ZM528.729 93.0401H525.658V76.9846H536.66C538.031 76.9846 539.135 77.4279 539.973 78.3145C540.811 79.185 541.23 80.3456 541.23 81.7964C541.23 83.0699 540.86 84.1257 540.118 84.964C539.393 85.8022 538.426 86.2858 537.217 86.4148L541.23 93.0401H537.773L533.904 86.439H528.729V93.0401ZM536.66 83.5615C537.112 83.5615 537.474 83.4165 537.748 83.1263C538.023 82.82 538.16 82.4251 538.16 81.9415V81.4821C538.16 80.9985 538.023 80.6116 537.748 80.3214C537.474 80.0151 537.112 79.862 536.66 79.862H528.729V83.5615H536.66Z" fill="#504523"/>
<g id="MASTR" opacity="0.66">
<path id="DESIGN ENGINEERING" d="M306.952 364.067H310.712C311.45 364.067 312.116 364.237 312.711 364.578C313.306 364.912 313.77 365.38 314.104 365.983C314.445 366.585 314.615 367.264 314.615 368.017C314.615 368.763 314.445 369.437 314.104 370.04C313.77 370.643 313.306 371.115 312.711 371.457C312.116 371.798 311.45 371.968 310.712 371.968H306.952V364.067ZM310.712 370.54C311.156 370.54 311.553 370.433 311.902 370.219C312.259 370.005 312.537 369.707 312.735 369.326C312.933 368.938 313.033 368.501 313.033 368.017C313.033 367.533 312.933 367.101 312.735 366.72C312.537 366.332 312.259 366.03 311.902 365.816C311.553 365.594 311.156 365.483 310.712 365.483H308.463V370.54H310.712ZM320.23 367.303H324.585V368.72H320.23V370.54H326.073V371.968H318.719V364.067H326.073V365.483H320.23V367.303ZM335.512 366.435C335.512 366.102 335.333 365.836 334.976 365.637C334.619 365.431 334.147 365.328 333.56 365.328C332.925 365.328 332.441 365.419 332.108 365.602C331.775 365.784 331.608 366.046 331.608 366.387C331.608 366.681 331.767 366.895 332.084 367.03C332.402 367.157 332.921 367.22 333.643 367.22C334.873 367.22 335.765 367.407 336.321 367.779C336.884 368.152 337.166 368.743 337.166 369.553C337.166 370.393 336.856 371.032 336.237 371.468C335.627 371.905 334.734 372.123 333.56 372.123C332.846 372.123 332.215 372.02 331.668 371.814C331.128 371.599 330.708 371.302 330.406 370.921C330.105 370.54 329.954 370.1 329.954 369.6H331.454C331.454 369.933 331.648 370.203 332.037 370.409C332.425 370.608 332.933 370.707 333.56 370.707C334.234 370.707 334.754 370.608 335.119 370.409C335.484 370.211 335.666 369.925 335.666 369.553C335.666 369.235 335.492 369.005 335.143 368.862C334.802 368.72 334.254 368.648 333.5 368.648C332.31 368.648 331.446 368.47 330.906 368.113C330.375 367.756 330.109 367.18 330.109 366.387C330.109 365.578 330.402 364.963 330.99 364.543C331.577 364.114 332.433 363.9 333.56 363.9C334.242 363.9 334.845 364.007 335.369 364.221C335.892 364.428 336.297 364.725 336.583 365.114C336.868 365.495 337.011 365.935 337.011 366.435H335.512ZM341.253 364.067H342.765V371.968H341.253V364.067ZM354.659 368.017C354.659 368.771 354.496 369.461 354.171 370.088C353.846 370.715 353.386 371.211 352.791 371.576C352.204 371.94 351.525 372.123 350.756 372.123C350.018 372.123 349.352 371.948 348.757 371.599C348.162 371.242 347.694 370.75 347.353 370.124C347.019 369.497 346.853 368.795 346.853 368.017C346.853 367.24 347.019 366.538 347.353 365.911C347.694 365.284 348.162 364.793 348.757 364.436C349.352 364.079 350.018 363.9 350.756 363.9C351.605 363.9 352.351 364.126 352.993 364.578C353.636 365.031 354.104 365.637 354.397 366.399L352.66 366.423C352.446 366.105 352.172 365.856 351.839 365.673C351.506 365.491 351.145 365.399 350.756 365.399C350.312 365.399 349.911 365.514 349.554 365.745C349.205 365.967 348.931 366.276 348.733 366.673C348.535 367.069 348.435 367.518 348.435 368.017C348.435 368.509 348.535 368.954 348.733 369.35C348.931 369.747 349.205 370.06 349.554 370.29C349.911 370.512 350.312 370.624 350.756 370.624C351.295 370.624 351.767 370.457 352.172 370.124C352.577 369.791 352.85 369.35 352.993 368.803H350.756V367.387H354.612C354.643 367.569 354.659 367.779 354.659 368.017ZM360.279 366.506V371.968H358.768V364.067H360.113L364.777 369.517V364.067H366.289V371.968H364.92L360.279 366.506ZM378.293 367.303H382.649V368.72H378.293V370.54H384.136V371.968H376.782V364.067H384.136V365.483H378.293V367.303ZM389.898 366.506V371.968H388.386V364.067H389.731L394.396 369.517V364.067H395.907V371.968H394.539L389.898 366.506ZM407.812 368.017C407.812 368.771 407.649 369.461 407.324 370.088C406.999 370.715 406.538 371.211 405.943 371.576C405.356 371.94 404.678 372.123 403.908 372.123C403.171 372.123 402.504 371.948 401.909 371.599C401.314 371.242 400.846 370.75 400.505 370.124C400.172 369.497 400.005 368.795 400.005 368.017C400.005 367.24 400.172 366.538 400.505 365.911C400.846 365.284 401.314 364.793 401.909 364.436C402.504 364.079 403.171 363.9 403.908 363.9C404.757 363.9 405.503 364.126 406.146 364.578C406.788 365.031 407.256 365.637 407.55 366.399L405.812 366.423C405.598 366.105 405.325 365.856 404.991 365.673C404.658 365.491 404.297 365.399 403.908 365.399C403.464 365.399 403.064 365.514 402.707 365.745C402.358 365.967 402.084 366.276 401.885 366.673C401.687 367.069 401.588 367.518 401.588 368.017C401.588 368.509 401.687 368.954 401.885 369.35C402.084 369.747 402.358 370.06 402.707 370.29C403.064 370.512 403.464 370.624 403.908 370.624C404.448 370.624 404.92 370.457 405.325 370.124C405.729 369.791 406.003 369.35 406.146 368.803H403.908V367.387H407.764C407.796 367.569 407.812 367.779 407.812 368.017ZM411.92 364.067H413.432V371.968H411.92V364.067ZM419.4 366.506V371.968H417.889V364.067H419.233L423.898 369.517V364.067H425.409V371.968H424.041L419.4 366.506ZM431.388 367.303H435.743V368.72H431.388V370.54H437.231V371.968H429.876V364.067H437.231V365.483H431.388V367.303ZM442.992 367.303H447.347V368.72H442.992V370.54H448.835V371.968H441.481V364.067H448.835V365.483H442.992V367.303ZM454.596 371.968H453.085V364.067H458.5C459.174 364.067 459.717 364.285 460.13 364.721C460.542 365.15 460.749 365.721 460.749 366.435C460.749 367.061 460.566 367.581 460.201 367.994C459.844 368.406 459.368 368.644 458.773 368.708L460.749 371.968H459.047L457.143 368.72H454.596V371.968ZM458.5 367.303C458.722 367.303 458.9 367.232 459.035 367.089C459.17 366.938 459.237 366.744 459.237 366.506V366.28C459.237 366.042 459.17 365.852 459.035 365.709C458.9 365.558 458.722 365.483 458.5 365.483H454.596V367.303H458.5ZM464.91 364.067H466.422V371.968H464.91V364.067ZM472.39 366.506V371.968H470.878V364.067H472.223L476.888 369.517V364.067H478.399V371.968H477.031L472.39 366.506ZM490.304 368.017C490.304 368.771 490.141 369.461 489.816 370.088C489.491 370.715 489.03 371.211 488.435 371.576C487.848 371.94 487.17 372.123 486.401 372.123C485.663 372.123 484.996 371.948 484.401 371.599C483.806 371.242 483.338 370.75 482.997 370.124C482.664 369.497 482.497 368.795 482.497 368.017C482.497 367.24 482.664 366.538 482.997 365.911C483.338 365.284 483.806 364.793 484.401 364.436C484.996 364.079 485.663 363.9 486.401 363.9C487.249 363.9 487.995 364.126 488.638 364.578C489.28 365.031 489.748 365.637 490.042 366.399L488.305 366.423C488.09 366.105 487.817 365.856 487.483 365.673C487.15 365.491 486.789 365.399 486.401 365.399C485.956 365.399 485.556 365.514 485.199 365.745C484.85 365.967 484.576 366.276 484.378 366.673C484.179 367.069 484.08 367.518 484.08 368.017C484.08 368.509 484.179 368.954 484.378 369.35C484.576 369.747 484.85 370.06 485.199 370.29C485.556 370.512 485.956 370.624 486.401 370.624C486.94 370.624 487.412 370.457 487.817 370.124C488.221 369.791 488.495 369.35 488.638 368.803H486.401V367.387H490.256C490.288 367.569 490.304 367.779 490.304 368.017Z" fill="#16150D"/>
<path id="Vector" d="M378.859 318.463H404.469L406.192 307.833H377.527C367.796 307.833 361.11 313.283 359.63 322.407C358.946 326.656 359.679 330.208 361.77 332.694C364.019 335.376 367.735 336.797 372.502 336.797H384.788C386.585 336.797 387.819 337.213 388.528 338.058C389.127 338.768 389.335 339.736 389.139 340.948C388.883 342.565 387.77 344.488 383.956 344.488H357.1L355.376 355.118H385.509C394.799 355.118 402.011 349.117 403.466 340.201C404.151 335.976 403.466 332.596 401.437 330.183C399.224 327.563 395.459 326.179 390.533 326.179H377.954C376.329 326.179 375.094 325.726 374.373 324.856C373.957 324.366 373.517 323.509 373.737 322.162C374.116 319.823 375.986 318.488 378.871 318.488L378.859 318.463Z" fill="#16150D"/>
<path id="Vector_2" d="M272.338 325.174L287.85 307.196H299.255L291.53 356.122H278.291L282.337 330.404L275.797 337.997H264.478L260.212 330.404L256.165 356.122H243L250.726 307.196H262.045L272.338 325.174Z" fill="#16150D"/>
<path id="Vector_3" d="M296.26 356.122L323.618 307.196H339.95L351.795 356.122H337.676L334.95 344.549H316.565L310.245 356.122H296.273H296.26ZM322.958 332.767H332.297L329.351 321.427L322.958 332.767Z" fill="#16150D"/>
<path id="Vector_4" d="M426.399 319.063H408.747L410.581 307.196H459.123L457.289 319.063H439.564L433.684 356.122H420.519L426.399 319.063Z" fill="#16150D"/>
<path id="Vector_5" d="M456.641 356.122L464.367 307.196H498.338C502.799 307.196 506.112 308.396 508.264 310.809C510.415 313.221 511.503 316.21 511.503 319.798C511.503 320.68 511.43 321.611 511.283 322.603C510.794 325.75 509.486 328.653 507.347 331.335C505.22 334.017 502.335 335.841 498.704 336.821L498.778 336.968L507.383 356.122H492.531L484.292 337.556H472.74L469.794 356.122H456.629H456.641ZM474.586 325.689H495.404C496.088 325.689 496.675 325.444 497.164 324.954C497.653 324.464 497.946 323.827 498.044 323.043L498.264 321.721C498.362 320.888 498.264 320.239 497.971 319.774C497.678 319.308 497.189 319.075 496.504 319.075H475.686L474.586 325.701V325.689Z" fill="#16150D"/>
<path id="Vector_6" d="M543.249 307L511.503 356.122H525.084L556.891 307H543.249Z" fill="#16150D"/>
</g>
<g id="MeterGraphics">
<g id="Black Numbers">
<path id="-20" d="M65.6027 271.284H76.2903V274.161H65.6027V271.284ZM86.5167 271.84C87.7419 271.324 88.564 270.897 88.9831 270.559C89.4183 270.22 89.636 269.817 89.636 269.35C89.636 268.737 89.3861 268.262 88.8864 267.923C88.3867 267.585 87.6613 267.415 86.7102 267.415C85.8075 267.415 85.1062 267.633 84.6065 268.068C84.1068 268.487 83.8569 269.019 83.8569 269.664H80.6168C80.6168 268.036 81.1488 266.746 82.2127 265.795C83.2766 264.844 84.7758 264.369 86.7102 264.369C88.5962 264.369 90.0873 264.82 91.1835 265.723C92.2796 266.609 92.8277 267.818 92.8277 269.35C92.8277 270.14 92.6585 270.825 92.3199 271.405C91.9975 271.985 91.4656 272.533 90.7241 273.049C89.9825 273.549 88.9589 274.065 87.6532 274.597C86.4603 275.08 85.5254 275.604 84.8483 276.168C84.1874 276.716 83.8569 277.281 83.8569 277.861H93.1421V280.763H80.3267V278.514C80.3267 277.192 80.8586 275.959 81.9225 274.814C83.0026 273.654 84.534 272.662 86.5167 271.84ZM104.348 281.077C102.027 281.077 100.253 280.368 99.0282 278.949C97.8031 277.514 97.1905 275.443 97.1905 272.735C97.1905 270.043 97.8031 267.979 99.0282 266.545C100.269 265.094 102.043 264.369 104.348 264.369C106.669 264.369 108.442 265.094 109.667 266.545C110.909 267.979 111.529 270.043 111.529 272.735C111.529 275.411 110.909 277.474 109.667 278.925C108.426 280.36 106.653 281.077 104.348 281.077ZM100.382 272.735C100.382 274.46 100.721 275.773 101.398 276.676C102.075 277.579 103.058 278.03 104.348 278.03C105.637 278.03 106.621 277.579 107.298 276.676C107.975 275.773 108.313 274.46 108.313 272.735C108.313 271.01 107.975 269.696 107.298 268.794C106.621 267.875 105.637 267.415 104.348 267.415C103.058 267.415 102.075 267.875 101.398 268.794C100.721 269.696 100.382 271.01 100.382 272.735Z" fill="#392E20"/>
<path id="-10" d="M121.924 224.557H132.611V227.435H121.924V224.557ZM137.107 217.98H140.178V234.036H137.107V217.98ZM151.507 234.35C149.185 234.35 147.412 233.641 146.187 232.222C144.962 230.788 144.349 228.716 144.349 226.008C144.349 223.316 144.962 221.253 146.187 219.818C147.428 218.367 149.201 217.642 151.507 217.642C153.828 217.642 155.601 218.367 156.826 219.818C158.067 221.253 158.688 223.316 158.688 226.008C158.688 228.684 158.067 230.747 156.826 232.198C155.585 233.633 153.812 234.35 151.507 234.35ZM147.541 226.008C147.541 227.733 147.88 229.047 148.557 229.949C149.234 230.852 150.217 231.304 151.507 231.304C152.796 231.304 153.78 230.852 154.457 229.949C155.134 229.047 155.472 227.733 155.472 226.008C155.472 224.283 155.134 222.97 154.457 222.067C153.78 221.148 152.796 220.689 151.507 220.689C150.217 220.689 149.234 221.148 148.557 222.067C147.88 222.97 147.541 224.283 147.541 226.008Z" fill="#392E20"/>
<path id="-7" d="M180.471 191.53H191.159V194.407H180.471V191.53ZM195.05 184.953H207.261V187.516L201.168 201.008H197.831L203.755 187.83H195.05V184.953Z" fill="#392E20"/>
<path id="-5" d="M233.723 166.594H244.41V169.471H233.723V166.594ZM255 166.11C257.047 166.11 258.627 166.546 259.739 167.416C260.851 168.287 261.407 169.536 261.407 171.164C261.407 172.857 260.851 174.154 259.739 175.057C258.643 175.944 257.063 176.387 255 176.387C252.936 176.387 251.356 175.96 250.26 175.105C249.164 174.251 248.616 173.018 248.616 171.406H251.808C251.808 172.035 252.082 172.518 252.63 172.857C253.178 173.179 253.968 173.34 255 173.34C256.031 173.34 256.821 173.155 257.369 172.784C257.917 172.413 258.191 171.873 258.191 171.164C258.191 169.729 257.127 169.012 255 169.012H248.906V160.017H260.343V162.894H251.977V166.11H255Z" fill="#392E20"/>
<path id="-3" d="M318.948 146.768H329.636V149.646H318.948V146.768ZM337.033 151.58C337.033 152.209 337.307 152.692 337.856 153.031C338.404 153.353 339.193 153.514 340.225 153.514C341.257 153.514 342.047 153.353 342.595 153.031C343.143 152.692 343.417 152.209 343.417 151.58C343.417 150.967 343.143 150.5 342.595 150.177C342.063 149.839 341.273 149.662 340.225 149.646L337.928 149.621V146.816L340.225 146.768C342.063 146.72 342.982 146.075 342.982 144.834C342.982 144.221 342.732 143.746 342.232 143.407C341.732 143.069 341.007 142.899 340.056 142.899C339.137 142.899 338.428 143.069 337.928 143.407C337.444 143.746 337.203 144.221 337.203 144.834H333.963C333.963 143.222 334.486 141.989 335.534 141.134C336.582 140.28 338.089 139.853 340.056 139.853C342.039 139.853 343.554 140.28 344.602 141.134C345.65 141.989 346.173 143.222 346.173 144.834C346.173 146.285 345.633 147.381 344.553 148.122C345.94 148.815 346.633 149.968 346.633 151.58C346.633 153.192 346.077 154.425 344.964 155.279C343.868 156.134 342.289 156.561 340.225 156.561C338.162 156.561 336.582 156.134 335.486 155.279C334.39 154.425 333.842 153.192 333.842 151.58H337.033Z" fill="#392E20"/>
<path id="-2" d="M371.231 143.971H381.918V146.848H371.231V143.971ZM392.145 144.527C393.37 144.011 394.192 143.584 394.611 143.245C395.046 142.907 395.264 142.504 395.264 142.036C395.264 141.424 395.014 140.948 394.514 140.609C394.015 140.271 393.289 140.102 392.338 140.102C391.435 140.102 390.734 140.319 390.234 140.755C389.735 141.174 389.485 141.706 389.485 142.35H386.245C386.245 140.722 386.777 139.433 387.841 138.482C388.905 137.531 390.404 137.055 392.338 137.055C394.224 137.055 395.715 137.506 396.811 138.409C397.908 139.296 398.456 140.505 398.456 142.036C398.456 142.826 398.286 143.511 397.948 144.091C397.625 144.672 397.094 145.22 396.352 145.736C395.61 146.235 394.587 146.751 393.281 147.283C392.088 147.767 391.153 148.291 390.476 148.855C389.815 149.403 389.485 149.967 389.485 150.547H398.77V153.449H385.955V151.2C385.955 149.878 386.487 148.645 387.55 147.501C388.631 146.34 390.162 145.349 392.145 144.527Z" fill="#392E20"/>
<path id="-1" d="M438.871 146.768H449.559V149.646H438.871V146.768ZM454.054 140.191H457.125V156.247H454.054V140.191Z" fill="#392E20"/>
<path id="0" d="M519.344 167.243C517.023 167.243 515.25 166.533 514.025 165.115C512.799 163.68 512.187 161.609 512.187 158.901C512.187 156.209 512.799 154.145 514.025 152.711C515.266 151.26 517.039 150.534 519.344 150.534C521.665 150.534 523.439 151.26 524.664 152.711C525.905 154.145 526.526 156.209 526.526 158.901C526.526 161.577 525.905 163.64 524.664 165.091C523.422 166.525 521.649 167.243 519.344 167.243ZM515.379 158.901C515.379 160.625 515.717 161.939 516.394 162.842C517.071 163.745 518.055 164.196 519.344 164.196C520.634 164.196 521.617 163.745 522.294 162.842C522.971 161.939 523.31 160.625 523.31 158.901C523.31 157.176 522.971 155.862 522.294 154.959C521.617 154.04 520.634 153.581 519.344 153.581C518.055 153.581 517.071 154.04 516.394 154.959C515.717 155.862 515.379 157.176 515.379 158.901Z" fill="#392E20"/>
</g>
<g id="Red Numbers">
<path id="+1" d="M591.601 188.732V191.609H587.031V196.615H583.96V191.609H579.39V188.732H583.96V183.751H587.031V188.732H591.601ZM596.085 182.155H599.156V198.211H596.085V182.155Z" fill="#CE242B"/>
<path id="+2" d="M667.365 229.517V232.394H662.795V237.399H659.724V232.394H655.154V229.517H659.724V224.536H662.795V229.517H667.365ZM677.579 230.073C678.804 229.557 679.627 229.13 680.046 228.791C680.481 228.453 680.698 228.05 680.698 227.582C680.698 226.97 680.449 226.494 679.949 226.156C679.449 225.817 678.724 225.648 677.773 225.648C676.87 225.648 676.169 225.866 675.669 226.301C675.169 226.72 674.919 227.252 674.919 227.897H671.679C671.679 226.269 672.211 224.979 673.275 224.028C674.339 223.077 675.838 222.601 677.773 222.601C679.659 222.601 681.15 223.053 682.246 223.955C683.342 224.842 683.89 226.051 683.89 227.582C683.89 228.372 683.721 229.057 683.382 229.638C683.06 230.218 682.528 230.766 681.787 231.282C681.045 231.782 680.021 232.297 678.716 232.829C677.523 233.313 676.588 233.837 675.911 234.401C675.25 234.949 674.919 235.513 674.919 236.094H684.205V238.995H671.389V236.747C671.389 235.425 671.921 234.192 672.985 233.047C674.065 231.886 675.597 230.895 677.579 230.073Z" fill="#CE242B"/>
<path id="+3" d="M714.005 282.567V285.444H709.435V290.45H706.364V285.444H701.794V282.567H706.364V277.586H709.435V282.567H714.005ZM721.39 287.379C721.39 288.007 721.664 288.491 722.212 288.83C722.76 289.152 723.55 289.313 724.582 289.313C725.614 289.313 726.403 289.152 726.951 288.83C727.5 288.491 727.774 288.007 727.774 287.379C727.774 286.766 727.5 286.299 726.951 285.976C726.42 285.638 725.63 285.46 724.582 285.444L722.285 285.42V282.615L724.582 282.567C726.42 282.519 727.338 281.874 727.338 280.632C727.338 280.02 727.089 279.544 726.589 279.206C726.089 278.867 725.364 278.698 724.413 278.698C723.494 278.698 722.784 278.867 722.285 279.206C721.801 279.544 721.559 280.02 721.559 280.632H718.319C718.319 279.02 718.843 277.787 719.891 276.933C720.939 276.079 722.446 275.651 724.413 275.651C726.395 275.651 727.911 276.079 728.958 276.933C730.006 277.787 730.53 279.02 730.53 280.632C730.53 282.083 729.99 283.179 728.91 283.921C730.296 284.614 730.99 285.767 730.99 287.379C730.99 288.991 730.433 290.224 729.321 291.078C728.225 291.933 726.645 292.36 724.582 292.36C722.518 292.36 720.939 291.933 719.843 291.078C718.746 290.224 718.198 288.991 718.198 287.379H721.39Z" fill="#CE242B"/>
</g>
<g id="VU Labels">
<path id="VU" d="M93.1461 150.704L95.8061 157.312L95.8901 157.06L96.3241 155.898C96.3708 155.805 96.4314 155.655 96.5061 155.45L98.3401 150.816L98.3821 150.704H101.042L97.3181 160H94.2101L90.4721 150.704H93.1461ZM103.354 157.69C103.027 156.971 102.864 156.248 102.864 155.52V150.704H105.37V155.52C105.37 155.893 105.44 156.257 105.58 156.612C105.72 156.967 105.934 157.261 106.224 157.494C106.522 157.718 106.886 157.83 107.316 157.83C107.736 157.83 108.09 157.718 108.38 157.494C108.678 157.261 108.898 156.967 109.038 156.612C109.178 156.257 109.248 155.893 109.248 155.52V150.704H111.754V155.52C111.754 156.248 111.59 156.971 111.264 157.69C110.937 158.399 110.438 158.992 109.766 159.468C109.103 159.935 108.286 160.168 107.316 160.168C106.345 160.168 105.524 159.935 104.852 159.468C104.18 158.992 103.68 158.399 103.354 157.69Z" fill="#504523"/>
<path id="Vector_7" d="M716.449 135.171H643.686V172.881H716.449V135.171Z" fill="#CE242B"/>
<path id="VU_2" d="M671.646 150.704L674.306 157.312L674.39 157.06L674.824 155.898C674.871 155.805 674.931 155.655 675.006 155.45L676.84 150.816L676.882 150.704H679.542L675.818 160H672.71L668.972 150.704H671.646ZM681.854 157.69C681.527 156.971 681.364 156.248 681.364 155.52V150.704H683.87V155.52C683.87 155.893 683.94 156.257 684.08 156.612C684.22 156.967 684.434 157.261 684.724 157.494C685.022 157.718 685.386 157.83 685.816 157.83C686.236 157.83 686.59 157.718 686.88 157.494C687.178 157.261 687.398 156.967 687.538 156.612C687.678 156.257 687.748 155.893 687.748 155.52V150.704H690.254V155.52C690.254 156.248 690.09 156.971 689.764 157.69C689.437 158.399 688.938 158.992 688.266 159.468C687.603 159.935 686.786 160.168 685.816 160.168C684.845 160.168 684.024 159.935 683.352 159.468C682.68 158.992 682.18 158.399 681.854 157.69Z" fill="#FEF888"/>
</g>
<g id="Lines">
<g id="black meter line">
<mask id="mask0_39_1020" style="mask-type:luminance" maskUnits="userSpaceOnUse" x="63" y="79" width="672" height="248">
<g id="clippath">
<path id="Vector_8" d="M734.404 326.506L134.306 324.009L65.5579 277.305L63.354 79H734.404V326.506Z" fill="white"/>
</g>
</mask>
<g mask="url(#mask0_39_1020)">
<g id="Group">
<path id="Vector_9" d="M395.66 969.316C610.617 969.316 784.874 794.734 784.874 579.376C784.874 364.018 610.617 189.436 395.66 189.436C180.702 189.436 6.44458 364.018 6.44458 579.376C6.44458 794.734 180.702 969.316 395.66 969.316Z" stroke="black" stroke-width="2.43" stroke-miterlimit="10"/>
</g>
</g>
</g>
<g id="vertical markers">
<mask id="mask1_39_1020" style="mask-type:luminance" maskUnits="userSpaceOnUse" x="61" y="80" width="676" height="251">
<g id="clippath-1">
<path id="Vector_10" d="M395.636 190.603C515.64 190.603 623.239 244.74 695.449 329.882L736.758 330.055V80.815H61L63.2154 280.508L110.986 312.969C182.677 237.619 283.779 190.603 395.636 190.603Z" fill="white"/>
</g>
</mask>
<g mask="url(#mask1_39_1020)">
<g id="Group_2">
<g id="Clip path group">
<mask id="mask2_39_1020" style="mask-type:luminance" maskUnits="userSpaceOnUse" x="-42" y="19" width="872" height="414">
<g id="clippath-2">
<path id="Vector_11" d="M829.264 19.2448H-41.2336V432.005H829.264V19.2448Z" fill="white"/>
</g>
</mask>
<g mask="url(#mask2_39_1020)">
<g id="Group_3">
<g id="Group_4">
<g id="Group_5">
<g id="Group_6">
<path id="Vector_12" d="M396.802 589.295L719.807 307.073" stroke="#CE242B" stroke-width="2.43" stroke-miterlimit="10"/>
<path id="Vector_13" d="M396.802 589.295L657.913 249.248" stroke="#CE242B" stroke-width="2.43" stroke-miterlimit="10"/>
<path id="Vector_14" d="M396.802 589.295L588.069 208.602" stroke="#CE242B" stroke-width="2.43" stroke-miterlimit="10"/>
<path id="Vector_15" d="M396.802 589.295L548.756 202.094" stroke="#CE242B" stroke-width="2.43" stroke-miterlimit="10"/>
<path id="Vector_16" d="M396.802 589.295L517.394 179.702" stroke="black" stroke-width="2.43" stroke-miterlimit="10"/>
</g>
<path id="Vector_17" d="M396.802 589.295L479.489 183.817" stroke="black" stroke-width="2.43" stroke-miterlimit="10"/>
<path id="Vector_18" d="M396.802 589.295L453.711 169.147" stroke="black" stroke-width="2.43" stroke-miterlimit="10"/>
<path id="Vector_19" d="M396.802 589.295L395.556 165.448" stroke="black" stroke-width="2.43" stroke-miterlimit="10"/>
<path id="Vector_20" d="M396.802 589.295L347.601 169.147" stroke="black" stroke-width="2.43" stroke-miterlimit="10"/>
<path id="Vector_21" d="M396.802 589.295L300.476 189.817" stroke="black" stroke-width="2.43" stroke-miterlimit="10"/>
<path id="Vector_22" d="M396.802 589.295L265.214 188.002" stroke="black" stroke-width="2.43" stroke-miterlimit="10"/>
<path id="Vector_23" d="M396.802 589.295L238.617 213.562" stroke="black" stroke-width="2.43" stroke-miterlimit="10"/>
<path id="Vector_24" d="M396.802 589.295L209.17 212.383" stroke="black" stroke-width="2.43" stroke-miterlimit="10"/>
<path id="Vector_25" d="M396.802 589.295L155.214 246.312" stroke="black" stroke-width="2.43" stroke-miterlimit="10"/>
<path id="Vector_26" d="M396.802 589.295L104.617 294.495" stroke="black" stroke-width="2.43" stroke-miterlimit="10"/>
</g>
</g>
</g>
</g>
</g>
</g>
</g>
</g>
<g id="red meter line">
<mask id="mask3_39_1020" style="mask-type:luminance" maskUnits="userSpaceOnUse" x="476" y="79" width="259" height="293">
<g id="clippath-3">
<path id="Vector_27" d="M716.438 311.2L652.098 371.776L476.627 329.835L545.364 82.5606L734.404 79L716.438 311.2Z" fill="white"/>
</g>
</mask>
<g mask="url(#mask3_39_1020)">
<g id="Group_7">
<path id="Vector_28" d="M395.66 969.316C610.617 969.316 784.874 794.734 784.874 579.376C784.874 364.018 610.617 189.436 395.66 189.436C180.702 189.436 6.44458 364.018 6.44458 579.376C6.44458 794.734 180.702 969.316 395.66 969.316Z" stroke="#CE242B" stroke-width="13.22" stroke-miterlimit="10"/>
</g>
</g>
</g>
</g>
</g>
<path id="Needle" d="M408.86 226.958C408.86 226.657 408.837 226.311 408.814 225.929C408.618 223.571 407.833 221.317 406.679 219.236C403.021 212.635 399.617 202.092 397.367 189.26C396.986 187.11 396.675 184.983 396.386 182.855C396.144 182.312 395.971 182 395.89 182C395.81 182 395.636 182.312 395.394 182.855C395.106 184.971 394.794 187.11 394.413 189.26C392.163 202.092 388.759 212.635 385.102 219.236C383.959 221.305 383.175 223.559 382.967 225.929C382.932 226.311 382.921 226.646 382.921 226.958C382.921 232.831 386.74 237.744 391.979 239.432L388.505 431.668H403.264L399.79 239.432C405.029 237.744 408.848 232.831 408.848 226.958H408.86Z" fill="black"/>
<g id="BezelFrame" filter="url(#filter0_d_39_1020)">
<rect id="Rectangle 1" width="50" height="480" fill="#5B5C59"/>
<rect id="Rectangle 2" x="750" width="50" height="480" fill="#495146"/>
<path id="Rectangle 3" d="M800 0L750 50L50 50L0 -3.49691e-05L800 0Z" fill="#62665A"/>
<path id="Rectangle 4" d="M750 425L800 480L-2.40413e-06 480L50 425L750 425Z" fill="#283026"/>
</g>
<rect id="Dimmer" width="800" height="480" fill="#060606" fill-opacity="0.85"/>
<g id="ParameterOverlay">
<path id="PARAMETER NAME" d="M267.602 369.568C269.01 369.568 270.248 369.856 271.314 370.432C272.381 371.008 273.202 371.829 273.778 372.896C274.376 373.941 274.674 375.147 274.674 376.512C274.674 377.856 274.365 379.04 273.746 380.064C273.149 381.088 272.296 381.888 271.186 382.464C270.098 383.019 268.84 383.296 267.41 383.296H262.866C262.76 383.296 262.706 383.349 262.706 383.456V391.616C262.706 391.723 262.664 391.819 262.578 391.904C262.514 391.968 262.429 392 262.322 392H258.578C258.472 392 258.376 391.968 258.29 391.904C258.226 391.819 258.194 391.723 258.194 391.616V369.952C258.194 369.845 258.226 369.76 258.29 369.696C258.376 369.611 258.472 369.568 258.578 369.568H267.602ZM266.93 379.68C267.912 379.68 268.701 379.403 269.298 378.848C269.896 378.272 270.194 377.525 270.194 376.608C270.194 375.669 269.896 374.912 269.298 374.336C268.701 373.76 267.912 373.472 266.93 373.472H262.866C262.76 373.472 262.706 373.525 262.706 373.632V379.52C262.706 379.627 262.76 379.68 262.866 379.68H266.93ZM291.187 392C290.973 392 290.835 391.893 290.771 391.68L289.811 388.544C289.768 388.459 289.715 388.416 289.651 388.416H281.779C281.715 388.416 281.661 388.459 281.619 388.544L280.691 391.68C280.627 391.893 280.488 392 280.275 392H276.211C276.083 392 275.987 391.968 275.923 391.904C275.859 391.819 275.848 391.701 275.891 391.552L282.803 369.92C282.867 369.707 283.005 369.6 283.219 369.6H288.243C288.456 369.6 288.595 369.707 288.659 369.92L295.571 391.552C295.592 391.595 295.603 391.648 295.603 391.712C295.603 391.904 295.485 392 295.251 392H291.187ZM282.771 384.736C282.749 384.864 282.792 384.928 282.899 384.928H288.531C288.659 384.928 288.701 384.864 288.659 384.736L285.779 375.232C285.757 375.147 285.725 375.115 285.683 375.136C285.64 375.136 285.608 375.168 285.587 375.232L282.771 384.736ZM311.984 392C311.77 392 311.621 391.904 311.536 391.712L307.536 382.848C307.493 382.763 307.429 382.72 307.344 382.72H304.368C304.261 382.72 304.208 382.773 304.208 382.88V391.616C304.208 391.723 304.165 391.819 304.08 391.904C304.016 391.968 303.93 392 303.824 392H300.08C299.973 392 299.877 391.968 299.792 391.904C299.728 391.819 299.696 391.723 299.696 391.616V369.984C299.696 369.877 299.728 369.792 299.792 369.728C299.877 369.643 299.973 369.6 300.08 369.6H309.232C310.597 369.6 311.792 369.877 312.816 370.432C313.861 370.987 314.661 371.776 315.216 372.8C315.792 373.824 316.08 375.008 316.08 376.352C316.08 377.803 315.717 379.051 314.992 380.096C314.266 381.12 313.253 381.845 311.952 382.272C311.845 382.315 311.813 382.389 311.856 382.496L316.208 391.552C316.25 391.637 316.272 391.701 316.272 391.744C316.272 391.915 316.154 392 315.92 392H311.984ZM304.368 373.472C304.261 373.472 304.208 373.525 304.208 373.632V379.104C304.208 379.211 304.261 379.264 304.368 379.264H308.56C309.456 379.264 310.181 378.997 310.736 378.464C311.312 377.931 311.6 377.237 311.6 376.384C311.6 375.531 311.312 374.837 310.736 374.304C310.181 373.749 309.456 373.472 308.56 373.472H304.368ZM335.341 392C335.127 392 334.989 391.893 334.925 391.68L333.965 388.544C333.922 388.459 333.869 388.416 333.805 388.416H325.933C325.869 388.416 325.815 388.459 325.773 388.544L324.845 391.68C324.781 391.893 324.642 392 324.429 392H320.365C320.237 392 320.141 391.968 320.077 391.904C320.013 391.819 320.002 391.701 320.045 391.552L326.957 369.92C327.021 369.707 327.159 369.6 327.373 369.6H332.397C332.61 369.6 332.749 369.707 332.813 369.92L339.725 391.552C339.746 391.595 339.757 391.648 339.757 391.712C339.757 391.904 339.639 392 339.405 392H335.341ZM326.925 384.736C326.903 384.864 326.946 384.928 327.053 384.928H332.685C332.813 384.928 332.855 384.864 332.813 384.736L329.933 375.232C329.911 375.147 329.879 375.115 329.837 375.136C329.794 375.136 329.762 375.168 329.741 375.232L326.925 384.736ZM358.249 369.856C358.356 369.685 358.505 369.6 358.697 369.6H362.441C362.548 369.6 362.633 369.643 362.697 369.728C362.783 369.792 362.825 369.877 362.825 369.984V391.616C362.825 391.723 362.783 391.819 362.697 391.904C362.633 391.968 362.548 392 362.441 392H358.697C358.591 392 358.495 391.968 358.409 391.904C358.345 391.819 358.313 391.723 358.313 391.616V377.504C358.313 377.419 358.292 377.376 358.249 377.376C358.207 377.376 358.164 377.408 358.121 377.472L354.729 382.784C354.623 382.955 354.473 383.04 354.281 383.04H352.393C352.201 383.04 352.052 382.955 351.945 382.784L348.553 377.472C348.511 377.408 348.468 377.387 348.425 377.408C348.383 377.408 348.361 377.451 348.361 377.536V391.616C348.361 391.723 348.319 391.819 348.233 391.904C348.169 391.968 348.084 392 347.977 392H344.233C344.127 392 344.031 391.968 343.945 391.904C343.881 391.819 343.849 391.723 343.849 391.616V369.984C343.849 369.877 343.881 369.792 343.945 369.728C344.031 369.643 344.127 369.6 344.233 369.6H347.977C348.169 369.6 348.319 369.685 348.425 369.856L353.225 377.312C353.289 377.44 353.353 377.44 353.417 377.312L358.249 369.856ZM383.556 373.088C383.556 373.195 383.514 373.291 383.428 373.376C383.364 373.44 383.279 373.472 383.172 373.472H372.676C372.57 373.472 372.516 373.525 372.516 373.632V378.592C372.516 378.699 372.57 378.752 372.676 378.752H379.556C379.663 378.752 379.748 378.795 379.812 378.88C379.898 378.944 379.94 379.029 379.94 379.136V382.24C379.94 382.347 379.898 382.443 379.812 382.528C379.748 382.592 379.663 382.624 379.556 382.624H372.676C372.57 382.624 372.516 382.677 372.516 382.784V387.968C372.516 388.075 372.57 388.128 372.676 388.128H383.172C383.279 388.128 383.364 388.171 383.428 388.256C383.514 388.32 383.556 388.405 383.556 388.512V391.616C383.556 391.723 383.514 391.819 383.428 391.904C383.364 391.968 383.279 392 383.172 392H368.388C368.282 392 368.186 391.968 368.1 391.904C368.036 391.819 368.004 391.723 368.004 391.616V369.984C368.004 369.877 368.036 369.792 368.1 369.728C368.186 369.643 368.282 369.6 368.388 369.6H383.172C383.279 369.6 383.364 369.643 383.428 369.728C383.514 369.792 383.556 369.877 383.556 369.984V373.088ZM403.428 369.6C403.534 369.6 403.62 369.643 403.684 369.728C403.769 369.792 403.812 369.877 403.812 369.984V373.12C403.812 373.227 403.769 373.323 403.684 373.408C403.62 373.472 403.534 373.504 403.428 373.504H397.7C397.593 373.504 397.54 373.557 397.54 373.664V391.616C397.54 391.723 397.497 391.819 397.412 391.904C397.348 391.968 397.262 392 397.156 392H393.412C393.305 392 393.209 391.968 393.124 391.904C393.06 391.819 393.028 391.723 393.028 391.616V373.664C393.028 373.557 392.974 373.504 392.868 373.504H387.3C387.193 373.504 387.097 373.472 387.012 373.408C386.948 373.323 386.916 373.227 386.916 373.12V369.984C386.916 369.877 386.948 369.792 387.012 369.728C387.097 369.643 387.193 369.6 387.3 369.6H403.428ZM423.523 373.088C423.523 373.195 423.48 373.291 423.395 373.376C423.331 373.44 423.245 373.472 423.139 373.472H412.643C412.536 373.472 412.483 373.525 412.483 373.632V378.592C412.483 378.699 412.536 378.752 412.643 378.752H419.523C419.629 378.752 419.715 378.795 419.779 378.88C419.864 378.944 419.907 379.029 419.907 379.136V382.24C419.907 382.347 419.864 382.443 419.779 382.528C419.715 382.592 419.629 382.624 419.523 382.624H412.643C412.536 382.624 412.483 382.677 412.483 382.784V387.968C412.483 388.075 412.536 388.128 412.643 388.128H423.139C423.245 388.128 423.331 388.171 423.395 388.256C423.48 388.32 423.523 388.405 423.523 388.512V391.616C423.523 391.723 423.48 391.819 423.395 391.904C423.331 391.968 423.245 392 423.139 392H408.355C408.248 392 408.152 391.968 408.067 391.904C408.003 391.819 407.971 391.723 407.971 391.616V369.984C407.971 369.877 408.003 369.792 408.067 369.728C408.152 369.643 408.248 369.6 408.355 369.6H423.139C423.245 369.6 423.331 369.643 423.395 369.728C423.48 369.792 423.523 369.877 423.523 369.984V373.088ZM440.226 392C440.013 392 439.863 391.904 439.778 391.712L435.778 382.848C435.735 382.763 435.671 382.72 435.586 382.72H432.61C432.503 382.72 432.45 382.773 432.45 382.88V391.616C432.45 391.723 432.407 391.819 432.322 391.904C432.258 391.968 432.173 392 432.066 392H428.322C428.215 392 428.119 391.968 428.034 391.904C427.97 391.819 427.938 391.723 427.938 391.616V369.984C427.938 369.877 427.97 369.792 428.034 369.728C428.119 369.643 428.215 369.6 428.322 369.6H437.474C438.839 369.6 440.034 369.877 441.058 370.432C442.103 370.987 442.903 371.776 443.458 372.8C444.034 373.824 444.322 375.008 444.322 376.352C444.322 377.803 443.959 379.051 443.234 380.096C442.509 381.12 441.495 381.845 440.194 382.272C440.087 382.315 440.055 382.389 440.098 382.496L444.45 391.552C444.493 391.637 444.514 391.701 444.514 391.744C444.514 391.915 444.397 392 444.162 392H440.226ZM432.61 373.472C432.503 373.472 432.45 373.525 432.45 373.632V379.104C432.45 379.211 432.503 379.264 432.61 379.264H436.802C437.698 379.264 438.423 378.997 438.978 378.464C439.554 377.931 439.842 377.237 439.842 376.384C439.842 375.531 439.554 374.837 438.978 374.304C438.423 373.749 437.698 373.472 436.802 373.472H432.61ZM469.425 369.984C469.425 369.877 469.457 369.792 469.521 369.728C469.606 369.643 469.702 369.6 469.809 369.6H473.553C473.659 369.6 473.745 369.643 473.809 369.728C473.894 369.792 473.937 369.877 473.937 369.984V391.616C473.937 391.723 473.894 391.819 473.809 391.904C473.745 391.968 473.659 392 473.553 392H469.937C469.723 392 469.574 391.915 469.489 391.744L461.201 378.048C461.158 377.984 461.115 377.963 461.073 377.984C461.03 377.984 461.009 378.027 461.009 378.112L461.073 391.616C461.073 391.723 461.03 391.819 460.945 391.904C460.881 391.968 460.795 392 460.689 392H456.945C456.838 392 456.742 391.968 456.657 391.904C456.593 391.819 456.561 391.723 456.561 391.616V369.984C456.561 369.877 456.593 369.792 456.657 369.728C456.742 369.643 456.838 369.6 456.945 369.6H460.561C460.774 369.6 460.923 369.685 461.009 369.856L469.265 383.488C469.307 383.552 469.35 383.584 469.393 383.584C469.435 383.563 469.457 383.509 469.457 383.424L469.425 369.984ZM493.362 392C493.148 392 493.01 391.893 492.946 391.68L491.986 388.544C491.943 388.459 491.89 388.416 491.826 388.416H483.954C483.89 388.416 483.836 388.459 483.794 388.544L482.866 391.68C482.802 391.893 482.663 392 482.45 392H478.386C478.258 392 478.162 391.968 478.098 391.904C478.034 391.819 478.023 391.701 478.066 391.552L484.978 369.92C485.042 369.707 485.18 369.6 485.394 369.6H490.418C490.631 369.6 490.77 369.707 490.834 369.92L497.746 391.552C497.767 391.595 497.778 391.648 497.778 391.712C497.778 391.904 497.66 392 497.426 392H493.362ZM484.946 384.736C484.924 384.864 484.967 384.928 485.074 384.928H490.706C490.834 384.928 490.876 384.864 490.834 384.736L487.954 375.232C487.932 375.147 487.9 375.115 487.858 375.136C487.815 375.136 487.783 375.168 487.762 375.232L484.946 384.736ZM516.271 369.856C516.377 369.685 516.527 369.6 516.719 369.6H520.463C520.569 369.6 520.655 369.643 520.719 369.728C520.804 369.792 520.847 369.877 520.847 369.984V391.616C520.847 391.723 520.804 391.819 520.719 391.904C520.655 391.968 520.569 392 520.463 392H516.719C516.612 392 516.516 391.968 516.431 391.904C516.367 391.819 516.335 391.723 516.335 391.616V377.504C516.335 377.419 516.313 377.376 516.271 377.376C516.228 377.376 516.185 377.408 516.143 377.472L512.751 382.784C512.644 382.955 512.495 383.04 512.303 383.04H510.415C510.223 383.04 510.073 382.955 509.967 382.784L506.575 377.472C506.532 377.408 506.489 377.387 506.447 377.408C506.404 377.408 506.383 377.451 506.383 377.536V391.616C506.383 391.723 506.34 391.819 506.255 391.904C506.191 391.968 506.105 392 505.999 392H502.255C502.148 392 502.052 391.968 501.967 391.904C501.903 391.819 501.871 391.723 501.871 391.616V369.984C501.871 369.877 501.903 369.792 501.967 369.728C502.052 369.643 502.148 369.6 502.255 369.6H505.999C506.191 369.6 506.34 369.685 506.447 369.856L511.247 377.312C511.311 377.44 511.375 377.44 511.439 377.312L516.271 369.856ZM541.578 373.088C541.578 373.195 541.535 373.291 541.45 373.376C541.386 373.44 541.3 373.472 541.194 373.472H530.698C530.591 373.472 530.538 373.525 530.538 373.632V378.592C530.538 378.699 530.591 378.752 530.698 378.752H537.578C537.684 378.752 537.77 378.795 537.834 378.88C537.919 378.944 537.962 379.029 537.962 379.136V382.24C537.962 382.347 537.919 382.443 537.834 382.528C537.77 382.592 537.684 382.624 537.578 382.624H530.698C530.591 382.624 530.538 382.677 530.538 382.784V387.968C530.538 388.075 530.591 388.128 530.698 388.128H541.194C541.3 388.128 541.386 388.171 541.45 388.256C541.535 388.32 541.578 388.405 541.578 388.512V391.616C541.578 391.723 541.535 391.819 541.45 391.904C541.386 391.968 541.3 392 541.194 392H526.41C526.303 392 526.207 391.968 526.122 391.904C526.058 391.819 526.026 391.723 526.026 391.616V369.984C526.026 369.877 526.058 369.792 526.122 369.728C526.207 369.643 526.303 369.6 526.41 369.6H541.194C541.3 369.6 541.386 369.643 541.45 369.728C541.535 369.792 541.578 369.877 541.578 369.984V373.088Z" fill="#504523"/>
<path id="TRACK NAME" d="M579.406 95.8C579.493 95.8 579.562 95.8347 579.614 95.904C579.666 95.956 579.684 96.0253 579.666 96.112L579.354 98.66C579.354 98.7467 579.32 98.8247 579.25 98.894C579.181 98.946 579.103 98.972 579.016 98.972H574.518C574.449 98.972 574.397 99.0153 574.362 99.102L572.568 113.688C572.551 113.775 572.508 113.853 572.438 113.922C572.386 113.974 572.317 114 572.23 114H569.292C569.206 114 569.136 113.974 569.084 113.922C569.032 113.853 569.015 113.775 569.032 113.688L570.8 99.102C570.835 99.0153 570.8 98.972 570.696 98.972H566.302C566.216 98.972 566.146 98.946 566.094 98.894C566.042 98.8247 566.025 98.7467 566.042 98.66L566.354 96.112C566.372 96.0253 566.406 95.956 566.458 95.904C566.528 95.8347 566.606 95.8 566.692 95.8H579.406ZM590.466 114C590.31 114 590.206 113.922 590.154 113.766L587.892 106.564C587.858 106.495 587.806 106.46 587.736 106.46H585.396C585.31 106.46 585.266 106.503 585.266 106.59L584.382 113.688C584.365 113.775 584.322 113.853 584.252 113.922C584.2 113.974 584.131 114 584.044 114H581.08C580.994 114 580.924 113.974 580.872 113.922C580.82 113.853 580.803 113.775 580.82 113.688L582.978 96.112C582.996 96.0253 583.03 95.956 583.082 95.904C583.152 95.8347 583.23 95.8 583.316 95.8H590.544C592.018 95.8 593.179 96.216 594.028 97.048C594.878 97.88 595.302 98.998 595.302 100.402C595.302 100.575 595.285 100.87 595.25 101.286C595.112 102.465 594.704 103.479 594.028 104.328C593.352 105.16 592.486 105.749 591.428 106.096C591.324 106.131 591.29 106.191 591.324 106.278L593.846 113.636C593.864 113.671 593.872 113.714 593.872 113.766C593.872 113.922 593.777 114 593.586 114H590.466ZM586.306 98.946C586.272 98.946 586.237 98.9633 586.202 98.998C586.185 99.0153 586.176 99.0413 586.176 99.076L585.63 103.522C585.63 103.609 585.665 103.652 585.734 103.652H589.036C589.816 103.652 590.466 103.409 590.986 102.924C591.506 102.421 591.766 101.78 591.766 101C591.766 100.376 591.567 99.882 591.168 99.518C590.787 99.1367 590.276 98.946 589.634 98.946H586.306ZM608.884 114C608.728 114 608.633 113.913 608.598 113.74L608.156 111.192C608.156 111.175 608.147 111.157 608.13 111.14C608.113 111.105 608.087 111.088 608.052 111.088H601.838C601.786 111.088 601.743 111.123 601.708 111.192L600.642 113.74C600.59 113.913 600.477 114 600.304 114H597.08C596.976 114 596.898 113.965 596.846 113.896C596.811 113.827 596.82 113.74 596.872 113.636L604.49 96.06C604.577 95.8867 604.698 95.8 604.854 95.8H608.806C608.962 95.8 609.066 95.8867 609.118 96.06L612.394 113.636V113.714C612.394 113.801 612.368 113.87 612.316 113.922C612.264 113.974 612.195 114 612.108 114H608.884ZM602.982 108.098C602.965 108.202 602.991 108.254 603.06 108.254H607.506C607.593 108.254 607.636 108.202 607.636 108.098L606.31 100.376C606.293 100.307 606.267 100.281 606.232 100.298C606.197 100.298 606.171 100.324 606.154 100.376L602.982 108.098ZM621.257 114.208C619.454 114.208 618.033 113.723 616.993 112.752C615.953 111.781 615.433 110.481 615.433 108.852C615.433 108.436 615.45 108.115 615.485 107.89L616.213 101.884C616.369 100.636 616.776 99.5353 617.435 98.582C618.094 97.6287 618.952 96.892 620.009 96.372C621.066 95.852 622.245 95.592 623.545 95.592C625.348 95.592 626.769 96.06 627.809 96.996C628.866 97.932 629.395 99.18 629.395 100.74C629.395 100.931 629.378 101.217 629.343 101.598C629.308 101.771 629.196 101.867 629.005 101.884L626.041 102.066H625.989C625.816 102.066 625.746 101.971 625.781 101.78C625.798 101.676 625.807 101.529 625.807 101.338C625.807 100.541 625.564 99.908 625.079 99.44C624.611 98.972 623.97 98.738 623.155 98.738C622.254 98.738 621.491 99.024 620.867 99.596C620.26 100.151 619.905 100.879 619.801 101.78L619.021 108.046C619.004 108.15 618.995 108.297 618.995 108.488C618.995 109.268 619.229 109.892 619.697 110.36C620.165 110.828 620.815 111.062 621.647 111.062C622.548 111.062 623.302 110.785 623.909 110.23C624.516 109.675 624.88 108.947 625.001 108.046C625.036 107.855 625.148 107.76 625.339 107.76L628.277 107.89C628.364 107.89 628.433 107.916 628.485 107.968C628.537 108.003 628.554 108.063 628.537 108.15C628.398 109.346 628 110.403 627.341 111.322C626.682 112.241 625.824 112.951 624.767 113.454C623.727 113.957 622.557 114.208 621.257 114.208ZM631.757 114C631.67 114 631.601 113.974 631.549 113.922C631.497 113.853 631.48 113.775 631.497 113.688L633.655 96.112C633.672 96.0253 633.707 95.956 633.759 95.904C633.828 95.8347 633.906 95.8 633.993 95.8H636.957C637.044 95.8 637.113 95.8347 637.165 95.904C637.217 95.956 637.234 96.0253 637.217 96.112L636.333 103.392C636.316 103.444 636.324 103.479 636.359 103.496C636.394 103.496 636.428 103.479 636.463 103.444L643.223 95.982C643.327 95.8607 643.457 95.8 643.613 95.8H646.941C647.114 95.8 647.201 95.8607 647.201 95.982C647.201 96.0513 647.166 96.1207 647.097 96.19L640.571 103.6C640.502 103.669 640.484 103.73 640.519 103.782L645.251 113.636C645.268 113.671 645.277 113.723 645.277 113.792C645.277 113.931 645.19 114 645.017 114H641.689C641.516 114 641.403 113.931 641.351 113.792L637.789 106.304C637.772 106.269 637.746 106.252 637.711 106.252C637.676 106.252 637.642 106.269 637.607 106.304L635.761 108.358L635.683 108.514L635.059 113.688C635.042 113.775 634.998 113.853 634.929 113.922C634.877 113.974 634.808 114 634.721 114H631.757ZM666.721 96.112C666.738 96.0253 666.773 95.956 666.825 95.904C666.894 95.8347 666.972 95.8 667.059 95.8H670.023C670.109 95.8 670.179 95.8347 670.231 95.904C670.283 95.956 670.3 96.0253 670.283 96.112L668.125 113.688C668.107 113.775 668.064 113.853 667.995 113.922C667.943 113.974 667.873 114 667.787 114H664.927C664.771 114 664.667 113.931 664.615 113.792L659.441 102.664C659.423 102.612 659.397 102.595 659.363 102.612C659.328 102.612 659.302 102.647 659.285 102.716L657.985 113.688C657.967 113.775 657.924 113.853 657.855 113.922C657.803 113.974 657.733 114 657.647 114H654.683C654.596 114 654.527 113.974 654.475 113.922C654.423 113.853 654.405 113.775 654.423 113.688L656.581 96.112C656.598 96.0253 656.633 95.956 656.685 95.904C656.754 95.8347 656.832 95.8 656.919 95.8H659.779C659.935 95.8 660.047 95.8693 660.117 96.008L665.265 107.084C665.282 107.136 665.308 107.162 665.343 107.162C665.377 107.145 665.403 107.101 665.421 107.032L666.721 96.112ZM683.451 114C683.295 114 683.2 113.913 683.165 113.74L682.723 111.192C682.723 111.175 682.714 111.157 682.697 111.14C682.68 111.105 682.654 111.088 682.619 111.088H676.405C676.353 111.088 676.31 111.123 676.275 111.192L675.209 113.74C675.157 113.913 675.044 114 674.871 114H671.647C671.543 114 671.465 113.965 671.413 113.896C671.378 113.827 671.387 113.74 671.439 113.636L679.057 96.06C679.144 95.8867 679.265 95.8 679.421 95.8H683.373C683.529 95.8 683.633 95.8867 683.685 96.06L686.961 113.636V113.714C686.961 113.801 686.935 113.87 686.883 113.922C686.831 113.974 686.762 114 686.675 114H683.451ZM677.549 108.098C677.532 108.202 677.558 108.254 677.627 108.254H682.073C682.16 108.254 682.203 108.202 682.203 108.098L680.877 100.376C680.86 100.307 680.834 100.281 680.799 100.298C680.764 100.298 680.738 100.324 680.721 100.376L677.549 108.098ZM703.767 96.008C703.871 95.8693 704.001 95.8 704.157 95.8H707.095C707.181 95.8 707.251 95.8347 707.303 95.904C707.355 95.956 707.372 96.0253 707.355 96.112L705.197 113.688C705.197 113.775 705.162 113.853 705.093 113.922C705.023 113.974 704.945 114 704.859 114H701.921C701.834 114 701.765 113.974 701.713 113.922C701.661 113.853 701.643 113.775 701.661 113.688L703.065 102.222C703.065 102.153 703.047 102.118 703.013 102.118C702.978 102.118 702.943 102.144 702.909 102.196L699.711 106.512C699.607 106.651 699.477 106.72 699.321 106.72H697.839C697.683 106.72 697.579 106.651 697.527 106.512L695.369 102.196C695.351 102.144 695.325 102.127 695.291 102.144C695.256 102.144 695.23 102.179 695.213 102.248L693.809 113.688C693.791 113.775 693.748 113.853 693.679 113.922C693.627 113.974 693.557 114 693.471 114H690.507C690.42 114 690.351 113.974 690.299 113.922C690.247 113.853 690.229 113.775 690.247 113.688L692.405 96.112C692.422 96.0253 692.457 95.956 692.509 95.904C692.578 95.8347 692.656 95.8 692.743 95.8H695.707C695.863 95.8 695.967 95.8693 696.019 96.008L699.061 102.066C699.113 102.17 699.165 102.17 699.217 102.066L703.767 96.008ZM723.432 98.634C723.415 98.7207 723.371 98.7987 723.302 98.868C723.25 98.92 723.181 98.946 723.094 98.946H714.8C714.765 98.946 714.731 98.9633 714.696 98.998C714.679 99.0153 714.67 99.0413 714.67 99.076L714.176 103.106C714.176 103.193 714.211 103.236 714.28 103.236H719.714C719.801 103.236 719.87 103.271 719.922 103.34C719.974 103.392 719.991 103.461 719.974 103.548L719.662 106.07C719.645 106.157 719.601 106.235 719.532 106.304C719.48 106.356 719.411 106.382 719.324 106.382H713.89C713.803 106.382 713.76 106.425 713.76 106.512L713.24 110.724C713.24 110.811 713.275 110.854 713.344 110.854H721.612C721.803 110.854 721.898 110.958 721.898 111.166L721.586 113.688C721.569 113.775 721.525 113.853 721.456 113.922C721.404 113.974 721.335 114 721.248 114H709.574C709.487 114 709.418 113.974 709.366 113.922C709.314 113.853 709.297 113.775 709.314 113.688L711.472 96.112C711.489 96.0253 711.524 95.956 711.576 95.904C711.645 95.8347 711.723 95.8 711.81 95.8H723.458C723.545 95.8 723.614 95.8347 723.666 95.904C723.735 95.956 723.761 96.0253 723.744 96.112L723.432 98.634Z" fill="#504523" fill-opacity="0.78"/>
<path id="99" d="M399.437 182.25C400.937 187.25 401.687 192.667 401.687 198.5C401.687 200.333 401.52 203.083 401.187 206.75L391.937 281.25C390.937 290.25 387.604 298.25 381.937 305.25C376.27 312.083 368.854 317.417 359.687 321.25C350.52 325.083 340.354 327 329.187 327C313.687 327 301.354 323.417 292.187 316.25C283.02 308.917 278.437 299.167 278.437 287C278.437 284.667 278.52 282.833 278.687 281.5L279.687 273.25C279.854 272.417 280.187 271.75 280.687 271.25C281.354 270.583 282.104 270.25 282.937 270.25H317.437C318.27 270.25 318.937 270.583 319.437 271.25C319.937 271.75 320.104 272.417 319.937 273.25L319.687 275.5C319.187 280 320.187 283.75 322.687 286.75C325.354 289.75 329.02 291.25 333.687 291.25C338.52 291.25 342.687 289.75 346.187 286.75C349.687 283.75 351.77 279.917 352.437 275.25L354.687 256C354.854 255.5 354.77 255.167 354.437 255C354.104 254.833 353.77 254.917 353.437 255.25C346.437 260.083 338.02 262.5 328.187 262.5C318.52 262.5 309.854 260 302.187 255C294.52 250 288.937 242.833 285.437 233.5C283.77 228.667 282.937 223.083 282.937 216.75C282.937 213.583 283.187 210.25 283.687 206.75C284.854 197.417 287.437 189 291.437 181.5C296.937 171.333 304.77 163.333 314.937 157.5C325.27 151.5 336.854 148.5 349.687 148.5C362.187 148.5 372.854 151.5 381.687 157.5C390.52 163.5 396.437 171.75 399.437 182.25ZM355.687 220C358.354 216.167 360.02 211.5 360.687 206C360.854 205 360.937 203.667 360.937 202C360.937 198.5 360.354 195.333 359.187 192.5C356.854 186.833 352.27 184 345.437 184C338.604 184 333.27 186.75 329.437 192.25C325.77 196.917 323.937 202.917 323.937 210.25C323.937 214.25 324.604 217.583 325.937 220.25C328.77 225.25 333.354 227.75 339.687 227.75C346.687 227.75 352.02 225.167 355.687 220ZM528.832 182.25C530.332 187.25 531.082 192.667 531.082 198.5C531.082 200.333 530.915 203.083 530.582 206.75L521.332 281.25C520.332 290.25 516.998 298.25 511.332 305.25C505.665 312.083 498.248 317.417 489.082 321.25C479.915 325.083 469.748 327 458.582 327C443.082 327 430.748 323.417 421.582 316.25C412.415 308.917 407.832 299.167 407.832 287C407.832 284.667 407.915 282.833 408.082 281.5L409.082 273.25C409.248 272.417 409.582 271.75 410.082 271.25C410.748 270.583 411.498 270.25 412.332 270.25H446.832C447.665 270.25 448.332 270.583 448.832 271.25C449.332 271.75 449.498 272.417 449.332 273.25L449.082 275.5C448.582 280 449.582 283.75 452.082 286.75C454.748 289.75 458.415 291.25 463.082 291.25C467.915 291.25 472.082 289.75 475.582 286.75C479.082 283.75 481.165 279.917 481.832 275.25L484.082 256C484.248 255.5 484.165 255.167 483.832 255C483.498 254.833 483.165 254.917 482.832 255.25C475.832 260.083 467.415 262.5 457.582 262.5C447.915 262.5 439.248 260 431.582 255C423.915 250 418.332 242.833 414.832 233.5C413.165 228.667 412.332 223.083 412.332 216.75C412.332 213.583 412.582 210.25 413.082 206.75C414.248 197.417 416.832 189 420.832 181.5C426.332 171.333 434.165 163.333 444.332 157.5C454.665 151.5 466.248 148.5 479.082 148.5C491.582 148.5 502.248 151.5 511.082 157.5C519.915 163.5 525.832 171.75 528.832 182.25ZM485.082 220C487.748 216.167 489.415 211.5 490.082 206C490.248 205 490.332 203.667 490.332 202C490.332 198.5 489.748 195.333 488.582 192.5C486.248 186.833 481.665 184 474.832 184C467.998 184 462.665 186.75 458.832 192.25C455.165 196.917 453.332 202.917 453.332 210.25C453.332 214.25 453.998 217.583 455.332 220.25C458.165 225.25 462.748 227.75 469.082 227.75C476.082 227.75 481.415 225.167 485.082 220Z" fill="#504523"/>
<path id="PLUGIN NAME" d="M87.556 97.774C89.064 97.774 90.26 98.2073 91.144 99.074C92.0453 99.9233 92.496 101.076 92.496 102.532C92.496 102.705 92.4787 103 92.444 103.416C92.3053 104.508 91.9413 105.47 91.352 106.302C90.78 107.134 90.0347 107.784 89.116 108.252C88.1973 108.703 87.1747 108.928 86.048 108.928H82.46C82.3907 108.928 82.3387 108.971 82.304 109.058L81.498 115.688C81.4807 115.775 81.4373 115.853 81.368 115.922C81.316 115.974 81.2467 116 81.16 116H78.222C78.0313 116 77.936 115.896 77.936 115.688L80.12 98.086C80.12 97.9993 80.1547 97.93 80.224 97.878C80.2933 97.8087 80.3713 97.774 80.458 97.774H87.556ZM86.022 105.99C86.854 105.99 87.5473 105.721 88.102 105.184C88.6567 104.629 88.934 103.936 88.934 103.104C88.934 102.445 88.726 101.925 88.31 101.544C87.894 101.145 87.3393 100.946 86.646 100.946H83.448C83.3787 100.946 83.3267 100.989 83.292 101.076L82.72 105.86C82.6853 105.947 82.72 105.99 82.824 105.99H86.022ZM94.4226 116C94.336 116 94.2666 115.974 94.2146 115.922C94.1626 115.853 94.1453 115.775 94.1626 115.688L96.3206 98.112C96.338 98.0253 96.3726 97.956 96.4246 97.904C96.494 97.8347 96.572 97.8 96.6586 97.8H99.6226C99.7093 97.8 99.7786 97.8347 99.8306 97.904C99.8826 97.956 99.9 98.0253 99.8826 98.112L98.0886 112.724C98.0886 112.811 98.1233 112.854 98.1926 112.854H106.435C106.625 112.854 106.721 112.958 106.721 113.166L106.409 115.688C106.391 115.775 106.348 115.853 106.279 115.922C106.227 115.974 106.157 116 106.071 116H94.4226ZM115.969 116.208C114.183 116.208 112.762 115.723 111.705 114.752C110.665 113.781 110.145 112.481 110.145 110.852C110.145 110.679 110.162 110.384 110.197 109.968L111.653 98.112C111.67 98.0253 111.713 97.956 111.783 97.904C111.852 97.8347 111.93 97.8 112.017 97.8H114.955C115.041 97.8 115.111 97.8347 115.163 97.904C115.215 97.956 115.232 98.0253 115.215 98.112L113.759 109.994C113.741 110.115 113.733 110.28 113.733 110.488C113.733 111.268 113.967 111.892 114.435 112.36C114.903 112.828 115.544 113.062 116.359 113.062C117.243 113.062 117.988 112.785 118.595 112.23C119.219 111.658 119.591 110.913 119.713 109.994L121.169 98.112C121.186 98.0253 121.221 97.956 121.273 97.904C121.342 97.8347 121.42 97.8 121.507 97.8H124.471C124.557 97.8 124.627 97.8347 124.679 97.904C124.731 97.956 124.748 98.0253 124.731 98.112L123.275 109.968C123.119 111.199 122.711 112.291 122.053 113.244C121.394 114.18 120.536 114.908 119.479 115.428C118.439 115.948 117.269 116.208 115.969 116.208ZM132.543 116.208C130.757 116.208 129.336 115.714 128.279 114.726C127.239 113.738 126.719 112.421 126.719 110.774C126.719 110.358 126.736 110.037 126.771 109.812L127.499 103.988C127.655 102.723 128.062 101.605 128.721 100.634C129.379 99.6633 130.237 98.918 131.295 98.398C132.352 97.8607 133.531 97.592 134.831 97.592C136.009 97.592 137.041 97.8173 137.925 98.268C138.809 98.7013 139.485 99.308 139.953 100.088C140.438 100.868 140.681 101.752 140.681 102.74C140.681 102.913 140.663 103.156 140.629 103.468L140.603 103.65C140.585 103.737 140.542 103.815 140.473 103.884C140.421 103.936 140.351 103.962 140.265 103.962H137.301C137.214 103.962 137.145 103.936 137.093 103.884C137.041 103.815 137.023 103.737 137.041 103.65L137.067 103.572C137.084 103.485 137.093 103.364 137.093 103.208C137.093 102.48 136.859 101.891 136.391 101.44C135.923 100.972 135.273 100.738 134.441 100.738C133.539 100.738 132.777 101.033 132.153 101.622C131.546 102.194 131.182 102.948 131.061 103.884L130.333 109.916C130.315 110.02 130.307 110.176 130.307 110.384C130.307 111.181 130.558 111.831 131.061 112.334C131.581 112.819 132.248 113.062 133.063 113.062C133.947 113.062 134.675 112.828 135.247 112.36C135.819 111.875 136.157 111.207 136.261 110.358L136.417 109.188C136.417 109.101 136.382 109.058 136.313 109.058H133.479C133.392 109.058 133.323 109.032 133.271 108.98C133.219 108.911 133.201 108.833 133.219 108.746L133.505 106.354C133.522 106.267 133.557 106.198 133.609 106.146C133.678 106.077 133.756 106.042 133.843 106.042H140.005C140.091 106.042 140.161 106.077 140.213 106.146C140.265 106.198 140.282 106.267 140.265 106.354L139.849 109.786C139.606 111.779 138.817 113.348 137.483 114.492C136.165 115.636 134.519 116.208 132.543 116.208ZM143.144 116C143.058 116 142.988 115.974 142.936 115.922C142.884 115.853 142.867 115.775 142.884 115.688L145.042 98.112C145.06 98.0253 145.094 97.956 145.146 97.904C145.216 97.8347 145.294 97.8 145.38 97.8H148.344C148.431 97.8 148.5 97.8347 148.552 97.904C148.604 97.956 148.622 98.0253 148.604 98.112L146.446 115.688C146.429 115.775 146.386 115.853 146.316 115.922C146.264 115.974 146.195 116 146.108 116H143.144ZM162.849 98.112C162.866 98.0253 162.901 97.956 162.953 97.904C163.022 97.8347 163.1 97.8 163.187 97.8H166.151C166.238 97.8 166.307 97.8347 166.359 97.904C166.411 97.956 166.428 98.0253 166.411 98.112L164.253 115.688C164.236 115.775 164.192 115.853 164.123 115.922C164.071 115.974 164.002 116 163.915 116H161.055C160.899 116 160.795 115.931 160.743 115.792L155.569 104.664C155.552 104.612 155.526 104.595 155.491 104.612C155.456 104.612 155.43 104.647 155.413 104.716L154.113 115.688C154.096 115.775 154.052 115.853 153.983 115.922C153.931 115.974 153.862 116 153.775 116H150.811C150.724 116 150.655 115.974 150.603 115.922C150.551 115.853 150.534 115.775 150.551 115.688L152.709 98.112C152.726 98.0253 152.761 97.956 152.813 97.904C152.882 97.8347 152.96 97.8 153.047 97.8H155.907C156.063 97.8 156.176 97.8693 156.245 98.008L161.393 109.084C161.41 109.136 161.436 109.162 161.471 109.162C161.506 109.145 161.532 109.101 161.549 109.032L162.849 98.112ZM186.79 98.112C186.808 98.0253 186.842 97.956 186.894 97.904C186.964 97.8347 187.042 97.8 187.128 97.8H190.092C190.179 97.8 190.248 97.8347 190.3 97.904C190.352 97.956 190.37 98.0253 190.352 98.112L188.194 115.688C188.177 115.775 188.134 115.853 188.064 115.922C188.012 115.974 187.943 116 187.856 116H184.996C184.84 116 184.736 115.931 184.684 115.792L179.51 104.664C179.493 104.612 179.467 104.595 179.432 104.612C179.398 104.612 179.372 104.647 179.354 104.716L178.054 115.688C178.037 115.775 177.994 115.853 177.924 115.922C177.872 115.974 177.803 116 177.716 116H174.752C174.666 116 174.596 115.974 174.544 115.922C174.492 115.853 174.475 115.775 174.492 115.688L176.65 98.112C176.668 98.0253 176.702 97.956 176.754 97.904C176.824 97.8347 176.902 97.8 176.988 97.8H179.848C180.004 97.8 180.117 97.8693 180.186 98.008L185.334 109.084C185.352 109.136 185.378 109.162 185.412 109.162C185.447 109.145 185.473 109.101 185.49 109.032L186.79 98.112ZM203.521 116C203.365 116 203.27 115.913 203.235 115.74L202.793 113.192C202.793 113.175 202.784 113.157 202.767 113.14C202.75 113.105 202.724 113.088 202.689 113.088H196.475C196.423 113.088 196.38 113.123 196.345 113.192L195.279 115.74C195.227 115.913 195.114 116 194.941 116H191.717C191.613 116 191.535 115.965 191.483 115.896C191.448 115.827 191.457 115.74 191.509 115.636L199.127 98.06C199.214 97.8867 199.335 97.8 199.491 97.8H203.443C203.599 97.8 203.703 97.8867 203.755 98.06L207.031 115.636V115.714C207.031 115.801 207.005 115.87 206.953 115.922C206.901 115.974 206.832 116 206.745 116H203.521ZM197.619 110.098C197.602 110.202 197.628 110.254 197.697 110.254H202.143C202.23 110.254 202.273 110.202 202.273 110.098L200.947 102.376C200.93 102.307 200.904 102.281 200.869 102.298C200.834 102.298 200.808 102.324 200.791 102.376L197.619 110.098ZM223.837 98.008C223.941 97.8693 224.071 97.8 224.227 97.8H227.165C227.251 97.8 227.321 97.8347 227.373 97.904C227.425 97.956 227.442 98.0253 227.425 98.112L225.267 115.688C225.267 115.775 225.232 115.853 225.163 115.922C225.093 115.974 225.015 116 224.929 116H221.991C221.904 116 221.835 115.974 221.783 115.922C221.731 115.853 221.713 115.775 221.731 115.688L223.135 104.222C223.135 104.153 223.117 104.118 223.083 104.118C223.048 104.118 223.013 104.144 222.979 104.196L219.781 108.512C219.677 108.651 219.547 108.72 219.391 108.72H217.909C217.753 108.72 217.649 108.651 217.597 108.512L215.439 104.196C215.421 104.144 215.395 104.127 215.361 104.144C215.326 104.144 215.3 104.179 215.283 104.248L213.879 115.688C213.861 115.775 213.818 115.853 213.749 115.922C213.697 115.974 213.627 116 213.541 116H210.577C210.49 116 210.421 115.974 210.369 115.922C210.317 115.853 210.299 115.775 210.317 115.688L212.475 98.112C212.492 98.0253 212.527 97.956 212.579 97.904C212.648 97.8347 212.726 97.8 212.813 97.8H215.777C215.933 97.8 216.037 97.8693 216.089 98.008L219.131 104.066C219.183 104.17 219.235 104.17 219.287 104.066L223.837 98.008ZM243.502 100.634C243.485 100.721 243.441 100.799 243.372 100.868C243.32 100.92 243.251 100.946 243.164 100.946H234.87C234.835 100.946 234.801 100.963 234.766 100.998C234.749 101.015 234.74 101.041 234.74 101.076L234.246 105.106C234.246 105.193 234.281 105.236 234.35 105.236H239.784C239.871 105.236 239.94 105.271 239.992 105.34C240.044 105.392 240.061 105.461 240.044 105.548L239.732 108.07C239.715 108.157 239.671 108.235 239.602 108.304C239.55 108.356 239.481 108.382 239.394 108.382H233.96C233.873 108.382 233.83 108.425 233.83 108.512L233.31 112.724C233.31 112.811 233.345 112.854 233.414 112.854H241.682C241.873 112.854 241.968 112.958 241.968 113.166L241.656 115.688C241.639 115.775 241.595 115.853 241.526 115.922C241.474 115.974 241.405 116 241.318 116H229.644C229.557 116 229.488 115.974 229.436 115.922C229.384 115.853 229.367 115.775 229.384 115.688L231.542 98.112C231.559 98.0253 231.594 97.956 231.646 97.904C231.715 97.8347 231.793 97.8 231.88 97.8H243.528C243.615 97.8 243.684 97.8347 243.736 97.904C243.805 97.956 243.831 98.0253 243.814 98.112L243.502 100.634Z" fill="#888249"/>
</g>
</g>
<defs>
<filter id="filter0_d_39_1020" x="-6.8" y="-9.80003" width="839.6" height="519.6" filterUnits="userSpaceOnUse" color-interpolation-filters="sRGB">
<feFlood flood-opacity="0" result="BackgroundImageFix"/>
<feColorMatrix in="SourceAlpha" type="matrix" values="0 0 0 0 0 0 0 0 0 0 0 0 0 0 0 0 0 0 127 0" result="hardAlpha"/>
<feOffset dx="13" dy="10"/>
<feGaussianBlur stdDeviation="9.9"/>
<feComposite in2="hardAlpha" operator="out"/>
<feColorMatrix type="matrix" values="0 0 0 0 0 0 0 0 0 0 0 0 0 0 0 0 0 0 0.33 0"/>
<feBlend mode="normal" in2="BackgroundImageFix" result="effect1_dropShadow_39_1020"/>
<feBlend mode="normal" in="SourceGraphic" in2="effect1_dropShadow_39_1020" result="shape"/>
</filter>
<linearGradient id="paint0_linear_39_1020" x1="400" y1="0" x2="400" y2="480" gradientUnits="userSpaceOnUse">
<stop stop-color="#D5D28F"/>
<stop offset="1" stop-color="#FEF888"/>
</linearGradient>
<clipPath id="clip0_39_1020">
<rect width="800" height="480" fill="white"/>
</clipPath>
</defs>
</svg>
