<svg width="400" height="240" viewBox="0 0 400 240" fill="none" xmlns="http://www.w3.org/2000/svg">
<g id="Property 1=V3">
<g id="Frame 5" clip-path="url(#clip0_40_1191)">
<rect id="Rectangle 7" width="400" height="240" fill="#AC3636" fill-opacity="0.67"/>
<g id="Lines Group">
<line id="Line" x1="-333.401" y1="6.01038" x2="345.422" y2="-672.812" stroke="black" stroke-width="3"/>
<line id="Line_2" x1="-326.33" y1="13.0814" x2="352.493" y2="-665.741" stroke="black" stroke-width="3"/>
<line id="Line_3" x1="-319.259" y1="20.1527" x2="359.564" y2="-658.67" stroke="black" stroke-width="3"/>
<line id="Line_4" x1="-312.188" y1="27.2238" x2="366.635" y2="-651.599" stroke="black" stroke-width="3"/>
<line id="Line_5" x1="-305.116" y1="34.2948" x2="373.706" y2="-644.528" stroke="black" stroke-width="3"/>
<line id="Line_6" x1="-298.046" y1="41.3659" x2="380.777" y2="-637.457" stroke="black" stroke-width="3"/>
<line id="Line_7" x1="-290.974" y1="48.4369" x2="387.848" y2="-630.386" stroke="black" stroke-width="3"/>
<line id="Line_8" x1="-283.903" y1="55.5079" x2="394.919" y2="-623.315" stroke="black" stroke-width="3"/>
<line id="Line_9" x1="-276.832" y1="62.579" x2="401.99" y2="-616.244" stroke="black" stroke-width="3"/>
<line id="Line_10" x1="-269.761" y1="69.65" x2="409.061" y2="-609.173" stroke="black" stroke-width="3"/>
<line id="Line_11" x1="-262.69" y1="76.7211" x2="416.133" y2="-602.102" stroke="black" stroke-width="3"/>
<line id="Line_12" x1="-255.619" y1="83.7921" x2="423.204" y2="-595.03" stroke="black" stroke-width="3"/>
<line id="Line_13" x1="-248.548" y1="90.8632" x2="430.275" y2="-587.959" stroke="black" stroke-width="3"/>
<line id="Line_14" x1="-241.477" y1="97.9345" x2="437.346" y2="-580.888" stroke="black" stroke-width="3"/>
<line id="Line_15" x1="-234.406" y1="105.006" x2="444.417" y2="-573.817" stroke="black" stroke-width="3"/>
<line id="Line_16" x1="-227.335" y1="112.077" x2="451.488" y2="-566.746" stroke="black" stroke-width="3"/>
<line id="Line_17" x1="-220.264" y1="119.148" x2="458.559" y2="-559.675" stroke="black" stroke-width="3"/>
<line id="Line_18" x1="-213.192" y1="126.219" x2="465.63" y2="-552.604" stroke="black" stroke-width="3"/>
<line id="Line_19" x1="-206.121" y1="133.29" x2="472.701" y2="-545.533" stroke="black" stroke-width="3"/>
<line id="Line_20" x1="-199.05" y1="140.361" x2="479.772" y2="-538.462" stroke="black" stroke-width="3"/>
<line id="Line_21" x1="-191.979" y1="147.432" x2="486.843" y2="-531.391" stroke="black" stroke-width="3"/>
<line id="Line_22" x1="-184.908" y1="154.503" x2="493.914" y2="-524.32" stroke="black" stroke-width="3"/>
<line id="Line_23" x1="-177.837" y1="161.574" x2="500.985" y2="-517.249" stroke="black" stroke-width="3"/>
<line id="Line_24" x1="-170.766" y1="168.645" x2="508.056" y2="-510.178" stroke="black" stroke-width="3"/>
<line id="Line_25" x1="-163.695" y1="175.716" x2="515.127" y2="-503.106" stroke="black" stroke-width="3"/>
<line id="Line_26" x1="-156.624" y1="182.787" x2="522.198" y2="-496.035" stroke="black" stroke-width="3"/>
<line id="Line_27" x1="-149.553" y1="189.858" x2="529.27" y2="-488.964" stroke="black" stroke-width="3"/>
<line id="Line_28" x1="-142.482" y1="196.929" x2="536.341" y2="-481.893" stroke="black" stroke-width="3"/>
<line id="Line_29" x1="-135.411" y1="204" x2="543.412" y2="-474.822" stroke="black" stroke-width="3"/>
<line id="Line_30" x1="-128.34" y1="211.071" x2="550.483" y2="-467.751" stroke="black" stroke-width="3"/>
<line id="Line_31" x1="-121.269" y1="218.142" x2="557.554" y2="-460.68" stroke="black" stroke-width="3"/>
<line id="Line_32" x1="-114.198" y1="225.214" x2="564.625" y2="-453.609" stroke="black" stroke-width="3"/>
<line id="Line_33" x1="-107.127" y1="232.285" x2="571.696" y2="-446.538" stroke="black" stroke-width="3"/>
<line id="Line_34" x1="-100.056" y1="239.356" x2="578.767" y2="-439.467" stroke="black" stroke-width="3"/>
<line id="Line_35" x1="-92.9845" y1="246.427" x2="585.838" y2="-432.396" stroke="black" stroke-width="3"/>
<line id="Line_36" x1="-85.9132" y1="253.498" x2="592.909" y2="-425.325" stroke="black" stroke-width="3"/>
<line id="Line_37" x1="-78.8424" y1="260.569" x2="599.98" y2="-418.254" stroke="black" stroke-width="3"/>
<line id="Line_38" x1="-71.7711" y1="267.64" x2="607.051" y2="-411.183" stroke="black" stroke-width="3"/>
<line id="Line_39" x1="-64.7001" y1="274.711" x2="614.122" y2="-404.111" stroke="black" stroke-width="3"/>
<line id="Line_40" x1="-57.629" y1="281.782" x2="621.194" y2="-397.04" stroke="black" stroke-width="3"/>
<line id="Line_41" x1="-50.558" y1="288.853" x2="628.265" y2="-389.969" stroke="black" stroke-width="3"/>
<line id="Line_42" x1="-43.4869" y1="295.924" x2="635.336" y2="-382.898" stroke="black" stroke-width="3"/>
<line id="Line_43" x1="-36.4159" y1="302.995" x2="642.407" y2="-375.827" stroke="black" stroke-width="3"/>
<line id="Line_44" x1="-29.3448" y1="310.066" x2="649.478" y2="-368.756" stroke="black" stroke-width="3"/>
<line id="Line_45" x1="-22.2738" y1="317.137" x2="656.549" y2="-361.685" stroke="black" stroke-width="3"/>
<line id="Line_46" x1="-15.2028" y1="324.209" x2="663.62" y2="-354.614" stroke="black" stroke-width="3"/>
<line id="Line_47" x1="-8.13146" y1="331.28" x2="670.691" y2="-347.543" stroke="black" stroke-width="3"/>
<line id="Line_48" x1="-1.06066" y1="338.351" x2="677.762" y2="-340.472" stroke="black" stroke-width="3"/>
<line id="Line_49" x1="6.01063" y1="345.422" x2="684.833" y2="-333.401" stroke="black" stroke-width="3"/>
<line id="Line_50" x1="13.0817" y1="352.493" x2="691.904" y2="-326.33" stroke="black" stroke-width="3"/>
<line id="Line_51" x1="20.1527" y1="359.564" x2="698.975" y2="-319.259" stroke="black" stroke-width="3"/>
<line id="Line_52" x1="27.2238" y1="366.635" x2="706.046" y2="-312.188" stroke="black" stroke-width="3"/>
<line id="Line_53" x1="34.2948" y1="373.706" x2="713.117" y2="-305.117" stroke="black" stroke-width="3"/>
<line id="Line_54" x1="41.3659" y1="380.777" x2="720.188" y2="-298.046" stroke="black" stroke-width="3"/>
<line id="Line_55" x1="48.4369" y1="387.848" x2="727.259" y2="-290.975" stroke="black" stroke-width="3"/>
<line id="Line_56" x1="55.5079" y1="394.919" x2="734.331" y2="-283.903" stroke="black" stroke-width="3"/>
<line id="Line_57" x1="62.579" y1="401.99" x2="741.402" y2="-276.832" stroke="black" stroke-width="3"/>
<line id="Line_58" x1="69.6503" y1="409.061" x2="748.473" y2="-269.761" stroke="black" stroke-width="3"/>
<line id="Line_59" x1="76.7211" y1="416.132" x2="755.544" y2="-262.69" stroke="black" stroke-width="3"/>
<line id="Line_60" x1="83.7924" y1="423.203" x2="762.615" y2="-255.619" stroke="black" stroke-width="3"/>
<line id="Line_61" x1="90.8634" y1="430.275" x2="769.686" y2="-248.548" stroke="black" stroke-width="3"/>
<line id="Line_62" x1="97.9345" y1="437.346" x2="776.757" y2="-241.477" stroke="black" stroke-width="3"/>
<line id="Line_63" x1="105.006" y1="444.417" x2="783.828" y2="-234.406" stroke="black" stroke-width="3"/>
<line id="Line_64" x1="112.077" y1="451.488" x2="790.899" y2="-227.335" stroke="black" stroke-width="3"/>
<line id="Line_65" x1="119.148" y1="458.559" x2="797.97" y2="-220.264" stroke="black" stroke-width="3"/>
<line id="Line_66" x1="126.219" y1="465.63" x2="805.041" y2="-213.193" stroke="black" stroke-width="3"/>
<line id="Line_67" x1="133.29" y1="472.701" x2="812.112" y2="-206.122" stroke="black" stroke-width="3"/>
<line id="Line_68" x1="140.361" y1="479.772" x2="819.183" y2="-199.051" stroke="black" stroke-width="3"/>
<line id="Line_69" x1="147.432" y1="486.843" x2="826.255" y2="-191.979" stroke="black" stroke-width="3"/>
<line id="Line_70" x1="154.503" y1="493.914" x2="833.325" y2="-184.909" stroke="black" stroke-width="3"/>
<line id="Line_71" x1="161.574" y1="500.985" x2="840.397" y2="-177.837" stroke="black" stroke-width="3"/>
<line id="Line_72" x1="168.645" y1="508.056" x2="847.468" y2="-170.766" stroke="black" stroke-width="3"/>
<line id="Line_73" x1="175.716" y1="515.127" x2="854.539" y2="-163.695" stroke="black" stroke-width="3"/>
<line id="Line_74" x1="182.787" y1="522.198" x2="861.61" y2="-156.624" stroke="black" stroke-width="3"/>
<line id="Line_75" x1="189.858" y1="529.269" x2="868.681" y2="-149.553" stroke="black" stroke-width="3"/>
<line id="Line_76" x1="196.929" y1="536.34" x2="875.752" y2="-142.482" stroke="black" stroke-width="3"/>
<line id="Line_77" x1="204" y1="543.412" x2="882.823" y2="-135.411" stroke="black" stroke-width="3"/>
<line id="Line_78" x1="211.071" y1="550.483" x2="889.894" y2="-128.34" stroke="black" stroke-width="3"/>
<line id="Line_79" x1="218.142" y1="557.554" x2="896.965" y2="-121.269" stroke="black" stroke-width="3"/>
<line id="Line_80" x1="225.214" y1="564.625" x2="904.036" y2="-114.198" stroke="black" stroke-width="3"/>
<line id="Line_81" x1="232.285" y1="571.696" x2="911.107" y2="-107.127" stroke="black" stroke-width="3"/>
<line id="Line_82" x1="239.356" y1="578.767" x2="918.178" y2="-100.056" stroke="black" stroke-width="3"/>
<line id="Line_83" x1="246.427" y1="585.838" x2="925.249" y2="-92.9845" stroke="black" stroke-width="3"/>
<line id="Line_84" x1="253.498" y1="592.909" x2="932.32" y2="-85.9135" stroke="black" stroke-width="3"/>
<line id="Line_85" x1="260.569" y1="599.98" x2="939.392" y2="-78.8424" stroke="black" stroke-width="3"/>
<line id="Line_86" x1="267.64" y1="607.051" x2="946.463" y2="-71.7714" stroke="black" stroke-width="3"/>
<line id="Line_87" x1="274.711" y1="614.122" x2="953.534" y2="-64.7004" stroke="black" stroke-width="3"/>
</g>
<text id="MIDI" fill="white" xml:space="preserve" style="white-space: pre" font-family="Barlow" font-size="36" font-style="italic" font-weight="bold" letter-spacing="0.04em"><tspan x="165.408" y="134.9">MIDI</tspan></text>
</g>
</g>
<defs>
<clipPath id="clip0_40_1191">
<rect width="400" height="240" fill="white"/>
</clipPath>
</defs>
</svg>
